<mxfile host="app.diagrams.net" modified="2024-04-05T21:47:12.352Z" agent="Mozilla/5.0 (Windows NT 10.0; Win64; x64) AppleWebKit/537.36 (KHTML, like Gecko) Chrome/123.0.0.0 Safari/537.36" version="24.2.2" etag="_DQ0zqPNo0ygO-DoLAJJ" type="github">
  <diagram name="Страница — 1" id="PV_m2d1WkXVif-mi6Bk2">
    <mxGraphModel>
      <root>
        <mxCell id="0" />
        <mxCell id="1" parent="0" />
      </root>
    </mxGraphModel>
  </diagram>
</mxfile>
